<svg xmlns="http://www.w3.org/2000/svg" width="512" height="512" viewBox="0 0 512 512">
  <rect width="512" height="512" fill="transparent"/>
  <g fill="#fff">
    <circle cx="12" cy="18" r="0.9" opacity="0.95"/><circle cx="44" cy="8" r="0.5" opacity="0.7"/>
    <circle cx="78" cy="32" r="1.1" opacity="1"/><circle cx="102" cy="14" r="0.6" opacity="0.85"/>
    <circle cx="134" cy="56" r="0.7" opacity="0.9"/><circle cx="168" cy="22" r="0.5" opacity="0.75"/>
    <circle cx="198" cy="74" r="1" opacity="0.95"/><circle cx="224" cy="40" r="0.55" opacity="0.8"/>
    <circle cx="256" cy="12" r="0.85" opacity="0.92"/><circle cx="288" cy="68" r="0.65" opacity="0.88"/>
    <circle cx="312" cy="28" r="1.15" opacity="1"/><circle cx="348" cy="88" r="0.5" opacity="0.72"/>
    <circle cx="378" cy="46" r="0.75" opacity="0.9"/><circle cx="412" cy="16" r="0.6" opacity="0.82"/>
    <circle cx="442" cy="72" r="0.95" opacity="0.96"/><circle cx="478" cy="34" r="0.55" opacity="0.78"/>
    <circle cx="498" cy="98" r="0.7" opacity="0.86"/><circle cx="28" cy="112" r="0.6" opacity="0.8"/>
    <circle cx="62" cy="142" r="1" opacity="0.94"/><circle cx="96" cy="118" r="0.5" opacity="0.7"/>
    <circle cx="128" cy="168" r="0.8" opacity="0.9"/><circle cx="158" cy="132" r="0.55" opacity="0.76"/>
    <circle cx="188" cy="192" r="0.65" opacity="0.84"/><circle cx="218" cy="148" r="1.05" opacity="0.98"/>
    <circle cx="248" cy="178" r="0.5" opacity="0.74"/><circle cx="278" cy="128" r="0.9" opacity="0.93"/>
    <circle cx="308" cy="208" r="0.6" opacity="0.81"/><circle cx="338" cy="162" r="0.75" opacity="0.88"/>
    <circle cx="368" cy="218" r="0.55" opacity="0.77"/><circle cx="398" cy="138" r="1.1" opacity="1"/>
    <circle cx="428" cy="188" r="0.65" opacity="0.85"/><circle cx="458" cy="158" r="0.5" opacity="0.73"/>
    <circle cx="488" cy="228" r="0.85" opacity="0.92"/><circle cx="18" cy="248" r="0.55" opacity="0.79"/>
    <circle cx="52" cy="278" r="0.95" opacity="0.96"/><circle cx="88" cy="232" r="0.6" opacity="0.82"/>
    <circle cx="118" cy="298" r="0.7" opacity="0.87"/><circle cx="148" cy="258" r="0.5" opacity="0.71"/>
    <circle cx="178" cy="318" r="1" opacity="0.97"/><circle cx="208" cy="272" r="0.55" opacity="0.75"/>
    <circle cx="238" cy="338" r="0.8" opacity="0.91"/><circle cx="268" cy="248" r="0.65" opacity="0.83"/>
    <circle cx="298" cy="308" r="0.5" opacity="0.72"/><circle cx="328" cy="278" r="1.05" opacity="0.99"/>
    <circle cx="358" cy="348" r="0.6" opacity="0.8"/><circle cx="388" cy="298" r="0.75" opacity="0.89"/>
    <circle cx="418" cy="258" r="0.55" opacity="0.76"/><circle cx="448" cy="328" r="0.9" opacity="0.94"/>
    <circle cx="478" cy="288" r="0.5" opacity="0.74"/><circle cx="8" cy="368" r="0.85" opacity="0.9"/>
    <circle cx="38" cy="398" r="0.6" opacity="0.81"/><circle cx="72" cy="358" r="1.1" opacity="1"/>
    <circle cx="108" cy="428" r="0.55" opacity="0.77"/><circle cx="138" cy="388" r="0.7" opacity="0.86"/>
    <circle cx="168" cy="448" r="0.5" opacity="0.7"/><circle cx="198" cy="408" r="0.95" opacity="0.95"/>
    <circle cx="228" cy="468" r="0.65" opacity="0.84"/><circle cx="258" cy="418" r="0.55" opacity="0.78"/>
    <circle cx="288" cy="378" r="0.8" opacity="0.92"/><circle cx="318" cy="458" r="0.6" opacity="0.82"/>
    <circle cx="348" cy="418" r="1" opacity="0.96"/><circle cx="378" cy="488" r="0.5" opacity="0.73"/>
    <circle cx="408" cy="438" r="0.75" opacity="0.88"/><circle cx="438" cy="398" r="0.55" opacity="0.75"/>
    <circle cx="468" cy="468" r="0.9" opacity="0.93"/><circle cx="498" cy="428" r="0.65" opacity="0.85"/>
    <circle cx="22" cy="488" r="0.5" opacity="0.71"/><circle cx="502" cy="8" r="0.7" opacity="0.87"/>
    <circle cx="6" cy="88" r="0.55" opacity="0.79"/><circle cx="186" cy="98" r="0.5" opacity="0.74"/>
    <circle cx="266" cy="108" r="0.6" opacity="0.8"/><circle cx="346" cy="118" r="0.85" opacity="0.91"/>
    <circle cx="426" cy="108" r="0.5" opacity="0.72"/><circle cx="506" cy="178" r="0.75" opacity="0.88"/>
    <circle cx="66" cy="208" r="0.55" opacity="0.76"/><circle cx="146" cy="218" r="0.65" opacity="0.83"/>
    <circle cx="226" cy="228" r="0.5" opacity="0.73"/><circle cx="306" cy="238" r="1" opacity="0.97"/>
    <circle cx="386" cy="248" r="0.6" opacity="0.81"/><circle cx="466" cy="258" r="0.55" opacity="0.77"/>
    <circle cx="86" cy="328" r="0.9" opacity="0.92"/><circle cx="166" cy="338" r="0.5" opacity="0.7"/>
    <circle cx="246" cy="348" r="0.7" opacity="0.86"/><circle cx="326" cy="358" r="0.55" opacity="0.78"/>
    <circle cx="406" cy="368" r="0.95" opacity="0.96"/><circle cx="486" cy="378" r="0.6" opacity="0.82"/>
  </g>
</svg>
